<?xml version="1.0" encoding="UTF-8"?>
<svg width="49px" height="49px" viewBox="0 0 49 49" version="1.1" xmlns="http://www.w3.org/2000/svg" xmlns:xlink="http://www.w3.org/1999/xlink">
    <!-- Generator: Sketch 43.2 (39069) - http://www.bohemiancoding.com/sketch -->
    <title>LinkedIN_Color</title>
    <desc>Created with Sketch.</desc>
    <defs></defs>
    <g id="Web-Portfolio-home" stroke="none" stroke-width="1" fill="none" fill-rule="evenodd">
        <g id="iPhone-7" transform="translate(-158.000000, -3598.000000)" fill-rule="nonzero">
            <g id="Group-8-Copy-2" transform="translate(79.000000, 3598.000000)">
                <g id="LinkedIN_Color" transform="translate(79.285192, 0.803279)">
                    <path d="M0,24.0983607 C0,10.7892029 10.7549873,0 24.0219378,0 C37.2888884,0 48.0438757,10.7892029 48.0438757,24.0983607 C48.0438757,37.4075184 37.2888884,48.1967213 24.0219378,48.1967213 C10.7549873,48.1967213 0,37.4075184 0,24.0983607 Z" id="back" fill="#0077B5"></path>
                    <path d="M16.9760452,19.9593149 L11.5321488,19.9593149 L11.5321488,36.3680006 L16.9760452,36.3680006 L16.9760452,19.9593149 Z M17.334594,14.8834464 C17.2992609,13.2745853 16.152405,12.0491803 14.2900823,12.0491803 C12.4277596,12.0491803 11.2102377,13.2745853 11.2102377,14.8834464 C11.2102377,16.4589826 12.3917743,17.7196729 14.2194162,17.7196729 L14.2542057,17.7196729 C16.152405,17.7196729 17.334594,16.4589826 17.334594,14.8834464 Z M36.6088183,26.9597617 C36.6088183,21.9197231 33.9231816,19.5740072 30.3408468,19.5740072 C27.4504959,19.5740072 26.1564372,21.1666415 25.4339038,22.2839032 L25.4339038,19.9597505 L19.989355,19.9597505 C20.0611083,21.4994567 19.989355,36.3684362 19.989355,36.3684362 L25.4339038,36.3684362 L25.4339038,27.2044723 C25.4339038,26.7140708 25.4692369,26.2248672 25.6131782,25.8737558 C26.0066251,24.8940418 26.9024534,23.8796957 28.4064448,23.8796957 C30.3771583,23.8796957 31.1649219,25.3843344 31.1649219,27.5893444 L31.1649219,36.3680006 L36.6086009,36.3680006 L36.6088183,26.9597617 Z" id="Shape" fill="#FFFFFF"></path>
                </g>
            </g>
        </g>
    </g>
</svg>