<?xml version="1.0" encoding="UTF-8"?>
<svg width="49px" height="49px" viewBox="0 0 49 49" version="1.1" xmlns="http://www.w3.org/2000/svg" xmlns:xlink="http://www.w3.org/1999/xlink">
    <!-- Generator: Sketch 43.2 (39069) - http://www.bohemiancoding.com/sketch -->
    <title>Pinterest_Color</title>
    <desc>Created with Sketch.</desc>
    <defs></defs>
    <g id="Web-Portfolio-home" stroke="none" stroke-width="1" fill="none" fill-rule="evenodd">
        <g id="iPhone-7" transform="translate(-235.000000, -3598.000000)" fill-rule="nonzero">
            <g id="Group-8-Copy-2" transform="translate(79.000000, 3598.000000)">
                <g id="Pinterest_Color" transform="translate(156.956124, 0.000000)">
                    <path d="M23.9824752,48.4723474 C10.7353699,48.4723474 0.000513752388,37.6897684 0.000513752388,24.3927158 C0.000513752388,11.0956631 10.7353699,0.315663158 23.9824752,0.315663158 C37.2270118,0.315663158 47.9644367,11.0956631 47.9644367,24.3927158 C47.9644367,37.6897684 37.2270118,48.4723474 23.9824752,48.4723474 Z" id="Fill-1892" fill="#FFFFFF"></path>
                    <path d="M23.9537051,2.5725 C11.9498806,2.5725 2.21941031,12.3389737 2.21941031,24.3929737 C2.21941031,33.6359211 7.94774945,41.5326579 16.0316433,44.7125 C15.8415549,42.9871842 15.6720166,40.3386053 16.1087061,38.4508158 C16.5017267,36.7487105 18.656918,27.6063421 18.656918,27.6063421 C18.656918,27.6063421 18.0070212,26.2988158 18.0070212,24.3671842 C18.0070212,21.3317631 19.7563481,19.0674474 21.9397957,19.0674474 C23.7918731,19.0674474 24.688371,20.4652369 24.688371,22.1415526 C24.688371,24.0138684 23.501603,26.8120263 22.8876689,29.4064474 C22.3764853,31.5805 23.9742552,33.3496579 26.1063276,33.3496579 C29.9697456,33.3496579 32.9392344,29.2594474 32.9392344,23.3562369 C32.9392344,18.1312895 29.2016857,14.4795 23.8612296,14.4795 C17.6782197,14.4795 14.0485591,19.1370789 14.0485591,23.9493947 C14.0485591,25.8242895 14.7652436,27.8358684 15.6643103,28.9293421 C15.8415549,29.1459737 15.8672425,29.3342369 15.8158672,29.5560263 C15.6514665,30.2446053 15.2841336,31.7275 15.2122082,32.0292369 C15.117164,32.4289737 14.8962505,32.5140789 14.4826798,32.3232369 C11.7700672,31.0543947 10.0746843,27.0673421 10.0746843,23.8694474 C10.0746843,16.9862369 15.0555137,10.6626579 24.4340636,10.6626579 C31.9733799,10.6626579 37.8327259,16.0578158 37.8327259,23.2659737 C37.8327259,30.7861842 33.1087726,36.8389737 26.555861,36.8389737 C24.3518632,36.8389737 22.2814411,35.6887631 21.5724628,34.3322369 C21.5724628,34.3322369 20.4833077,38.4972369 20.2187252,39.5185 C19.7280917,41.4140263 18.4026105,43.7892369 17.5189564,45.2386053 C19.5508471,45.8730263 21.711176,46.2134474 23.9537051,46.2134474 C35.9575297,46.2134474 45.6879999,36.4443947 45.6879999,24.3929737 C45.6879999,12.3389737 35.9575297,2.5725 23.9537051,2.5725" id="Fill-1894" fill="#BD071C"></path>
                </g>
            </g>
        </g>
    </g>
</svg>