<?xml version="1.0" encoding="UTF-8"?>
<svg width="49px" height="49px" viewBox="0 0 49 49" version="1.1" xmlns="http://www.w3.org/2000/svg" xmlns:xlink="http://www.w3.org/1999/xlink">
    <!-- Generator: Sketch 43.2 (39069) - http://www.bohemiancoding.com/sketch -->
    <title>Twitter_Color</title>
    <desc>Created with Sketch.</desc>
    <defs></defs>
    <g id="Web-Portfolio-home" stroke="none" stroke-width="1" fill="none" fill-rule="evenodd">
        <g id="iPhone-7" transform="translate(-79.000000, -3598.000000)" fill-rule="nonzero">
            <g id="Group-8-Copy-2" transform="translate(79.000000, 3598.000000)">
                <g id="Twitter_Color" transform="translate(0.813528, 0.803279)">
                    <path d="M0,24.0983607 C0,10.7892029 10.7549873,0 24.0219378,0 C37.2888884,0 48.0438757,10.7892029 48.0438757,24.0983607 C48.0438757,37.4075184 37.2888884,48.1967213 24.0219378,48.1967213 C10.7549873,48.1967213 0,37.4075184 0,24.0983607 Z" id="back" fill="#55ACEE"></path>
                    <path d="M23.3024834,19.5874494 L23.352892,20.4213071 L22.5127495,20.319202 C19.454631,19.9277995 16.782978,18.6004342 14.5145934,16.3711413 L13.4056054,15.2650037 L13.119957,16.0818438 C12.5150544,17.9027166 12.9015199,19.8256944 14.1617336,21.1190247 C14.8338475,21.8337598 14.6826219,21.9358648 13.5232253,21.5104273 C13.119957,21.3742872 12.7670971,21.2721822 12.7334914,21.3232347 C12.6158715,21.4423572 13.0191399,22.99095 13.338394,23.6035801 C13.7752681,24.4544552 14.665819,25.2883129 15.6403843,25.7818205 L16.4637239,26.1732231 L15.4891586,26.1902405 C14.5481991,26.1902405 14.5145934,26.2072581 14.6154105,26.5646256 C14.9514675,27.6707633 16.2788926,28.844971 17.7575433,29.3554961 L18.7993199,29.7128636 L17.8919661,30.2574238 C16.5477382,31.0402289 14.9682704,31.482684 13.3888026,31.5167189 C12.6326744,31.5337365 12.0109689,31.6018065 12.0109689,31.652859 C12.0109689,31.823034 14.0609165,32.7760142 15.2539188,33.1503993 C18.8329256,34.256537 23.0840464,33.7800469 26.2765877,31.891104 C28.5449723,30.5467213 30.8133569,27.8749733 31.8719364,25.2883129 C32.4432332,23.9098952 33.0145302,21.3913047 33.0145302,20.183062 C33.0145302,19.4002569 33.0649387,19.2981519 34.0058983,18.3621892 C34.5603922,17.8176291 35.0812806,17.2220165 35.1820977,17.0518414 C35.3501262,16.7285089 35.3333233,16.7285089 34.476378,17.0178064 C33.0481358,17.5283316 32.8465017,17.4602615 33.5522213,16.6944739 C34.0731096,16.1499138 34.694815,15.1628987 34.694815,14.8736011 C34.694815,14.8225486 34.4427723,14.9076361 34.1571239,15.0607936 C33.8546725,15.2309687 33.1825586,15.4862312 32.6784732,15.6393887 L31.7711193,15.9286862 L30.9477797,15.3671087 C30.4941028,15.0607936 29.8555945,14.7204435 29.5195375,14.6183385 C28.6625923,14.3800935 27.35197,14.4141285 26.579039,14.6864085 C24.4786829,15.4521962 23.1512578,17.4262265 23.3024834,19.5874494 Z" id="Shape" fill="#FFFFFF"></path>
                </g>
            </g>
        </g>
    </g>
</svg>