<?xml version="1.0" encoding="UTF-8"?>
<svg width="50px" height="50px" viewBox="0 0 50 50" version="1.1" xmlns="http://www.w3.org/2000/svg" xmlns:xlink="http://www.w3.org/1999/xlink">
    <!-- Generator: Sketch 43.2 (39069) - http://www.bohemiancoding.com/sketch -->
    <title>Shape</title>
    <desc>Created with Sketch.</desc>
    <defs></defs>
    <g id="Web-Portfolio-home" stroke="none" stroke-width="1" fill="none" fill-rule="evenodd">
        <g id="iPhone-7" transform="translate(-15.000000, -15.000000)" fill-rule="nonzero" fill="#9012FE">
            <path d="M40,65 C26.1928813,65 15,53.8071187 15,40 C15,26.1928813 26.1928813,15 40,15 C53.8071187,15 65,26.1928813 65,40 C65,46.6304122 62.366079,52.9892601 57.6776695,57.6776695 C52.9892601,62.366079 46.6304122,65 40,65 Z M49.1842105,51 L29.8157895,51 C28.8129566,51 28,50.1045695 28,49 C28,47.8954305 28.8129566,47 29.8157895,47 L49.1842105,47 C50.1870434,47 51,47.8954305 51,49 C51,50.1045695 50.1870434,51 49.1842105,51 Z M49.1842105,34 L29.8157895,34 C28.8129566,34 28,33.1045695 28,32 C28,30.8954305 28.8129566,30 29.8157895,30 L49.1842105,30 C50.1870434,30 51,30.8954305 51,32 C51,33.1045695 50.1870434,34 49.1842105,34 Z M49.1842105,42 L29.8157894,42 C28.8129566,42 28,41.1045695 28,40 C28,38.8954305 28.8129566,38 29.8157894,38 L49.1842105,38 C50.1870434,38 51,38.8954305 51,40 C51,41.1045695 50.1870434,42 49.1842105,42 L49.1842105,42 Z M40,18.6585366 C28.2134352,18.6585366 18.6585366,28.2134352 18.6585366,40 C18.6585366,51.7865648 28.2134352,61.3414634 40,61.3414634 C51.7865648,61.3414634 61.3414634,51.7865648 61.3414634,40 C61.3414634,28.2134352 51.7865648,18.6585366 40,18.6585366 L40,18.6585366 Z" id="Shape"></path>
        </g>
    </g>
</svg>